# xmcd CD database file
#
# Track frame offsets:
#	150
#	22452
#	35937
#	51302
#	71035
#	105447
#	130965
#	149695
#	163702
#	185115
#
# Disc length: 2857 seconds
#
# Revision: 0
# Processed by: cddbd v1.5.2PL0 Copyright (c) Steve Scherf et al.
# Submitted via: CDex 1.51
#
DISCID=a50b270a
DTITLE=Cipolle Verdi e gli Aliti Pesanti - Green Onions Live '96
DYEAR=1996
DGENRE=Blues
TTITLE0=Green Onions Help Me
TTITLE1=Midnight Hour
TTITLE2=Mustang sally
TTITLE3=Sex Machine I Feel Good
TTITLE4=Stormy Monday
TTITLE5=Messin' With The Kid
TTITLE6=Flip Flop and Fly
TTITLE7=Minnie The Moocher
TTITLE8=The Chicken
TTITLE9=Everyday I Have The Blues
EXTD=YEAR: 1996
EXTT0=
EXTT1=
EXTT2=
EXTT3=
EXTT4=
EXTT5=
EXTT6=
EXTT7=
EXTT8=
EXTT9=
PLAYORDER=
